<?xml version="1.0" standalone="no"?>
<!DOCTYPE svg PUBLIC "-//W3C//DTD SVG 20010904//EN"
 "http://www.w3.org/TR/2001/REC-SVG-20010904/DTD/svg10.dtd">
<svg version="1.0" xmlns="http://www.w3.org/2000/svg"
 width="200.000000pt" height="200.000000pt" viewBox="0 0 200.000000 200.000000"
 preserveAspectRatio="xMidYMid meet">

<g transform="translate(0.000000,200.000000) scale(0.100000,-0.100000)"
fill="#000000" stroke="none">
<path d="M243 1655 c-18 -8 -42 -29 -53 -47 -19 -32 -20 -49 -20 -608 0 -559
1 -576 20 -608 39 -64 16 -62 810 -62 794 0 771 -2 810 62 19 32 20 49 20 608
0 559 -1 576 -20 608 -39 64 -15 62 -812 62 -598 -1 -729 -3 -755 -15z m1027
-255 l0 -140 -490 0 -490 0 0 140 0 140 490 0 490 0 0 -140z m440 0 l0 -140
-155 0 -155 0 0 140 0 140 155 0 155 0 0 -140z m-440 -400 l0 -130 -490 0
-490 0 0 130 0 130 490 0 490 0 0 -130z m440 0 l0 -130 -155 0 -155 0 0 130 0
130 155 0 155 0 0 -130z m-440 -400 l0 -140 -490 0 -490 0 0 140 0 140 490 0
490 0 0 -140z m440 0 l0 -140 -155 0 -155 0 0 140 0 140 155 0 155 0 0 -140z"/>
</g>
</svg>
